# xmcd
#
# Track frame offsets: 
#        150
#        24269
#        41807
#        62289
#        88481
#        104662
#        127165
#        151638
#        173945
#        189932
#        210219
#        227159
#        245623
#
# Disc length: 3519 seconds
#
# Revision: 0
# Processed by: cddbd v1.4PL0 Copyright (c) Steve Scherf et al.
# Submitted via: ExactAudioCopy v0.90b4
#
DISCID=a80dbd0d
DTITLE=Various Artist - New Beat  of Angola
DYEAR=2002
DGENRE=Cape Verde
TTITLE0=From Angola
TTITLE1=É Da Noite
TTITLE2=Afro Jungle
TTITLE3=Kumystic Dance
TTITLE4=De Se Coçar
TTITLE5=Andorinha
TTITLE6=Frica
TTITLE7=Let's Move Your Body
TTITLE8=Matondorinha
TTITLE9=Intrumental
TTITLE10=Contratado
TTITLE11=Dá Dombolô
TTITLE12=D.J.'s Da Noite
EXTD=
EXTT0=
EXTT1=
EXTT2=
EXTT3=
EXTT4=
EXTT5=
EXTT6=
EXTT7=
EXTT8=
EXTT9=
EXTT10=
EXTT11=
EXTT12=
PLAYORDER=
